<mxfile host="app.diagrams.net" modified="2022-09-27T02:34:18.692Z" agent="5.0 (Macintosh; Intel Mac OS X 10_15_7) AppleWebKit/537.36 (KHTML, like Gecko) Chrome/105.0.0.0 Safari/537.36" etag="zsCxgXtSTzARNkbCYCKS" version="20.3.6" type="github">
  <diagram id="rFXopTXvPh0smOolJMEK" name="第 1 页">
    <mxGraphModel dx="940" dy="511" grid="1" gridSize="10" guides="1" tooltips="1" connect="1" arrows="1" fold="1" page="1" pageScale="1" pageWidth="827" pageHeight="1169" math="0" shadow="0">
      <root>
        <mxCell id="0" />
        <mxCell id="1" parent="0" />
        <mxCell id="BO5ibqrUccyOR6xtm73l-1" value="" style="strokeWidth=1;shadow=0;dashed=0;align=center;html=1;shape=mxgraph.mockup.rrect;rSize=10;strokeColor=#666666;fontSize=16;" parent="1" vertex="1">
          <mxGeometry x="80" y="60" width="120" height="200" as="geometry" />
        </mxCell>
        <mxCell id="BO5ibqrUccyOR6xtm73l-2" value="len&lt;br&gt;3" style="strokeColor=inherit;fillColor=inherit;gradientColor=inherit;strokeWidth=1;shadow=0;dashed=0;align=center;html=1;shape=mxgraph.mockup.rrect;rSize=0;fontSize=17;fontColor=#666666;fontStyle=1;resizeWidth=1;" parent="BO5ibqrUccyOR6xtm73l-1" vertex="1">
          <mxGeometry width="120" height="50" relative="1" as="geometry">
            <mxPoint y="50" as="offset" />
          </mxGeometry>
        </mxCell>
        <mxCell id="BO5ibqrUccyOR6xtm73l-3" value="free&lt;br&gt;1" style="strokeColor=inherit;fillColor=inherit;gradientColor=inherit;strokeWidth=1;shadow=0;dashed=0;align=center;html=1;shape=mxgraph.mockup.rrect;rSize=0;fontSize=17;fontColor=#666666;fontStyle=1;resizeWidth=1;" parent="BO5ibqrUccyOR6xtm73l-1" vertex="1">
          <mxGeometry width="120" height="50" relative="1" as="geometry">
            <mxPoint y="100" as="offset" />
          </mxGeometry>
        </mxCell>
        <mxCell id="BO5ibqrUccyOR6xtm73l-4" value="buf" style="strokeColor=inherit;fillColor=inherit;gradientColor=inherit;strokeWidth=1;shadow=0;dashed=0;align=center;html=1;shape=mxgraph.mockup.bottomButton;rSize=10;fontSize=17;fontColor=#666666;fontStyle=1;resizeWidth=1;" parent="BO5ibqrUccyOR6xtm73l-1" vertex="1">
          <mxGeometry y="1" width="120" height="50" relative="1" as="geometry">
            <mxPoint y="-50" as="offset" />
          </mxGeometry>
        </mxCell>
        <mxCell id="BO5ibqrUccyOR6xtm73l-5" value="sdshdr" style="strokeWidth=1;shadow=0;dashed=0;align=center;html=1;shape=mxgraph.mockup.topButton;rSize=10;fontSize=17;fontColor=#ffffff;fontStyle=1;fillColor=#008cff;strokeColor=#008cff;resizeWidth=1;" parent="BO5ibqrUccyOR6xtm73l-1" vertex="1">
          <mxGeometry width="120" height="50" relative="1" as="geometry" />
        </mxCell>
        <mxCell id="BO5ibqrUccyOR6xtm73l-39" value="" style="group;sketch=0;" parent="1" vertex="1" connectable="0">
          <mxGeometry x="580" y="60" width="100" height="40" as="geometry" />
        </mxCell>
        <mxCell id="BO5ibqrUccyOR6xtm73l-27" value="&lt;div style=&quot;&quot;&gt;&lt;span style=&quot;font-size: 25px; font-family: &amp;quot;Comic Sans MS&amp;quot;; background-color: initial;&quot;&gt;&amp;nbsp; HWJ&lt;/span&gt;&lt;/div&gt;" style="text;html=1;align=right;verticalAlign=middle;resizable=0;points=[];autosize=1;strokeColor=none;fillColor=none;fontSize=16;opacity=30;sketch=1;textOpacity=20;strokeWidth=0;rounded=1;" parent="BO5ibqrUccyOR6xtm73l-39" vertex="1">
          <mxGeometry width="100" height="40" as="geometry" />
        </mxCell>
        <mxCell id="BO5ibqrUccyOR6xtm73l-30" value="" style="shape=image;html=1;verticalAlign=top;verticalLabelPosition=bottom;labelBackgroundColor=#ffffff;imageAspect=0;aspect=fixed;image=https://cdn1.iconfinder.com/data/icons/ionicons-sharp-vol-2/512/qr-code-sharp-128.png;fontFamily=Comic Sans MS;fontSize=25;fillColor=#dae8fc;strokeColor=none;sketch=1;textOpacity=50;opacity=20;" parent="BO5ibqrUccyOR6xtm73l-39" vertex="1">
          <mxGeometry y="3" width="34" height="34" as="geometry" />
        </mxCell>
        <mxCell id="BO5ibqrUccyOR6xtm73l-25" style="edgeStyle=orthogonalEdgeStyle;curved=1;rounded=0;orthogonalLoop=1;jettySize=auto;html=1;entryX=0;entryY=0.504;entryDx=0;entryDy=0;entryPerimeter=0;fontSize=12;fontColor=#000000;endArrow=open;startSize=14;endSize=14;" parent="1" source="BO5ibqrUccyOR6xtm73l-4" target="BO5ibqrUccyOR6xtm73l-22" edge="1">
          <mxGeometry relative="1" as="geometry" />
        </mxCell>
        <mxCell id="urrQ4ibbCIJgPvf5cyys-15" value="" style="group" vertex="1" connectable="0" parent="1">
          <mxGeometry x="280" y="210" width="390" height="50" as="geometry" />
        </mxCell>
        <mxCell id="BO5ibqrUccyOR6xtm73l-22" value="&#39;H&#39;" style="strokeWidth=1;shadow=0;dashed=0;align=center;html=1;shape=mxgraph.mockup.leftButton;rSize=10;fontSize=17;fontColor=#ffffff;fontStyle=1;fillColor=#008cff;strokeColor=#008cff;resizeHeight=1;" parent="urrQ4ibbCIJgPvf5cyys-15" vertex="1">
          <mxGeometry width="80" height="50" as="geometry" />
        </mxCell>
        <mxCell id="urrQ4ibbCIJgPvf5cyys-4" value="&lt;font style=&quot;font-size: 17px;&quot;&gt;&lt;b&gt;&#39;W&#39;&lt;/b&gt;&lt;/font&gt;" style="rounded=0;whiteSpace=wrap;html=1;" vertex="1" parent="urrQ4ibbCIJgPvf5cyys-15">
          <mxGeometry x="80" width="80" height="50" as="geometry" />
        </mxCell>
        <mxCell id="urrQ4ibbCIJgPvf5cyys-5" value="&lt;font style=&quot;font-size: 17px;&quot;&gt;&lt;b&gt;&#39;J&#39;&lt;/b&gt;&lt;/font&gt;" style="rounded=0;whiteSpace=wrap;html=1;" vertex="1" parent="urrQ4ibbCIJgPvf5cyys-15">
          <mxGeometry x="160" width="80" height="50" as="geometry" />
        </mxCell>
        <mxCell id="urrQ4ibbCIJgPvf5cyys-6" value="&lt;font style=&quot;font-size: 17px;&quot;&gt;&lt;b&gt;&#39;\0&#39;&lt;/b&gt;&lt;/font&gt;" style="rounded=0;whiteSpace=wrap;html=1;" vertex="1" parent="urrQ4ibbCIJgPvf5cyys-15">
          <mxGeometry x="240" width="80" height="50" as="geometry" />
        </mxCell>
        <mxCell id="BO5ibqrUccyOR6xtm73l-21" value="" style="strokeWidth=1;shadow=0;dashed=0;align=center;html=1;shape=mxgraph.mockup.rightButton;rSize=10;fontSize=17;fontStyle=1;resizeHeight=1;" parent="urrQ4ibbCIJgPvf5cyys-15" vertex="1">
          <mxGeometry x="320" width="80" height="50" as="geometry">
            <mxPoint x="-10" as="offset" />
          </mxGeometry>
        </mxCell>
      </root>
    </mxGraphModel>
  </diagram>
</mxfile>
